# xmcd
#
# Track frame offsets: 
#        150
#        22159
#        45345
#        68574
#        95294
#        116875
#        134118
#        151632
#        180462
#        202510
#        221592
#        245458
#
# Disc length: 3603 seconds
#
# Revision: 1
# Processed by: cddbd v1.5.2PL0 Copyright (c) Steve Scherf et al.
# Submitted via: ExactAudioCopy v0.90b4
#
DISCID=9b0e110c
DTITLE=George Shearing - The Master Touch [CD2]
DYEAR=2000
DGENRE=Jazz
TTITLE0=They Say It's Spring
TTITLE1=Chasing Shadows
TTITLE2=To Tommy Flanagan
TTITLE3=Emily
TTITLE4=It Never Entered My Mind
TTITLE5=Easy To Love
TTITLE6=Hallucunations
TTITLE7=Prelude To A Kiss
TTITLE8=Change Partners
TTITLE9=East Of The Sun
TTITLE10=Do I Love You
TTITLE11=So In Love
EXTD=YEAR: 2000
EXTT0=
EXTT1=
EXTT2=
EXTT3=
EXTT4=
EXTT5=
EXTT6=
EXTT7=
EXTT8=
EXTT9=
EXTT10=
EXTT11=
PLAYORDER=
